<?xml version="1.0" encoding="UTF-8"?>
<svg id="Layer_1" data-name="Layer 1" xmlns="http://www.w3.org/2000/svg" viewBox="0 0 1422.51 471.18">
  <defs>
    <style>
      .cls-1 {
        fill: #ffffff;
      }

      .cls-2 {
        fill: #CE0000;
      }
    </style>
  </defs>
  <path class="cls-2" d="M957.16,413.06c-.57-1.74-2.18-2.61-3.93-2.23-2.94.6-5.88,1.12-8.83,1.53-.05,0-.1.02-.14.02h-.03s-.09.02-.12.02c-.05.02-.09.02-.09.02-.09.02-.15.02-.24.03-.33.05-.65.09-.98.12-.76.1-1.51.19-2.27.26-1.36.14-2.71.26-4.09.34-2.66.21-5.34.33-8.02.34-.05-2.1-.12-4.19-.21-6.29-.29-6.43-.77-12.9-2.01-19.21-.31-1.65-2.37-2.75-3.93-2.25-1.75.58-2.59,2.18-2.23,3.95h.02c.24,1.22.43,2.46.62,3.69,0,.05.02.15.03.26,0,.07.02.12.02.15,0,.07.02.12.02.17.02.05.02.1.02.14.03.17.05.33.07.48.09.72.17,1.44.24,2.16.31,2.89.52,5.79.67,8.68.14,2.65.22,5.31.27,7.97-.21,0-.4-.02-.6-.02-2.13-.09-4.26-.22-6.39-.41-.98-.09-1.94-.19-2.9-.29-.46-.05-.93-.12-1.37-.17-.15-.02-.29-.03-.45-.05-.03,0-.07,0-.1-.02-.09,0-.15-.02-.22-.03-2.83-.4-5.65-.89-8.45-1.55-.96-.22-1.92-.46-2.87-.74-.31-.1-.64-.19-.94-.29-.1-.03-.21-.09-.31-.1h-.03s.05.02.09.03c-1.43-.46-3.14-.17-3.93,1.32-.76,1.44-.45,3.59,1.15,4.38v.02c.05.02.12.05.17.07,2.39,1.19,4.69,2.53,6.84,4.07.24.17.46.34.7.52.05.03.1.09.15.1.02.02.03.03.07.05.03.03.07.05.1.09h.02c.5.41.98.79,1.46,1.2.94.82,1.86,1.67,2.71,2.56.82.82,1.6,1.7,2.35,2.59.15.21.33.4.48.6l.05.05s.02.02.03.03c0,.02.02.03.03.05s.05.05.07.09c.02.02.03.05.05.07.31.43.65.88.98,1.36,1.25,1.8,2.39,3.69,3.37,5.67.26.5.5,1,.74,1.51.1.22.19.45.29.67.03.1.1.21.14.31v.02s.03.03.03.05c.09.22.07.27.02.22.12.36.43.88.52,1.1.21.5.4,1.01.57,1.53.69,1.98,1.27,4,1.77,6.05.46,1.94.84,3.88,1.15,5.86.07.41.12.79.19,1.2,0,0,.02.07.03.24.03.26.07.53.09.81.12.93.21,1.84.29,2.77.19,2.08.33,4.17.41,6.27-.15,1.89-.34,3.85.29,5.58.57,1.51,1.86,2.51,3.52,2.29,1.53-.21,2.83-1.55,2.78-3.14-.05-1.49-.1-2.99-.17-4.48.02-.14.02-.26.02-.38,0-.34.02-.7.05-1.07.05-1.31.12-2.59.21-3.88.24-4.5.48-9,.67-13.52.34-8.23.6-16.51.58-24.76,2.03-.02,4.07-.09,6.1-.21,6.82-.4,13.62-1.31,20.32-2.7,1.65-.34,2.75-2.37,2.23-3.95ZM922.08,424.66c-.03,3.73-.12,7.47-.24,11.2-2.22-5.46-5.26-10.57-9.24-14.96-.6-.67-1.24-1.32-1.89-1.96,3.78.46,7.58.77,11.39.91,0,1.6,0,3.21-.02,4.81Z"/>
  <g>
    <g>
      <path class="cls-1" d="M1001.99,102.81h0c2.77,3.06,5.08,6.47,6.97,10.09l2.5-5.83c0-.16,0-.33,0-.49.01-1.61.02-3.21.01-4.82-3.8-.14-7.6-.43-11.38-.9.65.63,1.28,1.28,1.89,1.95Z"/>
      <path class="cls-1" d="M1057.27.19h-127.85l-76.71,178.99L776,.19l-101.95-.19-77.04,179.18L520.29.19,409.25.03v-.03H0v383.75l127.85-25.57v-120.74h257.27l25.57-102.28H127.85v-33.04l307.36.36,110.65,255.71,104.1-.78,74.89-203.79,76.71,204.56h102.28l101.73-237.37c-.04-.11-.08-.21-.11-.31-.09-.24-.39-.74-.52-1.12-.04-.05-.07-.16-.06-.3-.04-.1-.09-.19-.13-.29-.1-.22-.2-.44-.3-.66-.23-.5-.48-1.01-.73-1.51-1-1.97-2.12-3.87-3.39-5.68-.33-.48-.68-.95-1.03-1.42-.04-.05-.06-.08-.08-.11-.04-.04-.07-.08-.1-.11-.16-.2-.33-.41-.49-.6-.75-.9-1.53-1.77-2.34-2.6-.87-.89-1.78-1.74-2.72-2.55-.48-.41-.98-.82-1.47-1.21-.11-.08-.21-.16-.33-.24-.23-.17-.46-.34-.7-.51-2.22-1.59-4.58-2.96-7.02-4.16-1.61-.79-1.91-2.94-1.15-4.39.56-1.06,1.6-1.51,2.67-1.51.46,0,.93.08,1.37.24-.17-.07-.32-.13-.29-.13.01,0,.05.01.14.04.1.04.21.07.31.11.31.11.63.2.94.29.95.28,1.92.52,2.88.74,2.78.65,5.61,1.15,8.44,1.55.09.01.17.02.25.04.17.02.34.04.51.06.46.06.92.11,1.37.16.97.11,1.94.21,2.9.3,2.13.19,4.26.33,6.4.42.2,0,.4,0,.59.01-.06-2.66-.14-5.32-.28-7.98-.15-2.9-.36-5.79-.66-8.68-.08-.72-.16-1.44-.24-2.16-.03-.25-.07-.5-.1-.75.02.2.03.27.03.27,0,0-.07-.58-.1-.74-.18-1.23-.38-2.46-.62-3.68-.34-1.77.48-3.37,2.24-3.94.26-.08.53-.12.81-.12,1.39,0,2.86.99,3.13,2.36,1.24,6.32,1.72,12.79,2,19.22.09,2.09.15,4.18.2,6.26,2.68-.04,5.35-.14,8.02-.33,1.37-.1,2.73-.22,4.09-.36.75-.08,1.51-.16,2.26-.25.33-.04.65-.08.98-.12.16-.02.32-.04.48-.06.04,0,.09-.01.15-.02,2.95-.41,5.89-.93,8.82-1.53.27-.05.53-.08.79-.08,1.44,0,2.67.84,3.16,2.32.51,1.57-.59,3.6-2.24,3.94-6.7,1.39-13.5,2.3-20.33,2.7-2.03.12-4.06.19-6.09.21.03,8.27-.21,16.53-.57,24.78-.19,4.51-.43,9.01-.68,13.52-.07,1.29-.15,2.58-.21,3.87-.01.36-.04.71-.04,1.07,0,.2-.01.39-.03.59.06,1.42.12,2.83.16,4.26.05,1.6-1.25,2.94-2.78,3.15-.11.01-.23.01-.33.01v25.61c0,119.14.02,179.23.02,179.23l228.72.25,52.41-.25,127.85,25.81.07-248.73-250.03.14,21.84,87.37,99.33-.14v32.9h-159.84s0-25.53,0-76.59v-76.58h288.73s0-101.92,0-101.92h-365.24Z"/>
    </g>
    <polygon class="cls-1" points="0 445.64 10.16 445.64 10.16 429.26 28.51 429.26 28.51 421.41 10.16 421.41 10.16 410.04 44.16 410.04 44.16 402.52 0 402.52 0 445.64"/>
    <path class="cls-1" d="M94.04,429.34c3.48,0,6.02-.67,7.62-2,1.52-1.33,2.27-3.45,2.27-6.34v-10.12c0-2.97-.75-5.11-2.27-6.43-1.65-1.29-4.19-1.94-7.62-1.94h-37.29v43.13h9.97v-16.3h9.64l17.59,16.3h14.56l-20.13-16.3h5.66ZM66.73,422.01v-12.04h22.84c1.77,0,2.98.26,3.63.76.63.5.93,1.39.93,2.67v5.18c0,1.25-.31,2.14-.93,2.67-.64.51-1.86.75-3.63.75h-22.84Z"/>
    <polygon class="cls-1" points="130.93 426.84 151.06 426.84 151.06 419.5 130.93 419.5 130.93 409.87 165.45 409.87 165.45 402.52 120.77 402.52 120.77 445.65 120.77 445.65 165.86 445.65 165.86 437.55 130.93 437.55 130.93 426.84"/>
    <path class="cls-1" d="M228.7,408.05c-4.34-3.69-10.51-5.53-18.52-5.53h-28.09v43.12h25.47c4.56,0,8.19-.28,10.91-.83,2.77-.5,5.1-1.34,7.02-2.51,3.06-1.84,5.42-4.37,7.1-7.61,1.69-3.25,2.54-6.86,2.54-10.85,0-6.8-2.14-12.07-6.42-15.79ZM220.23,434.29c-2.98,2.17-7.94,3.26-14.89,3.26h-13.11v-27.33h18.03c4.65,0,8.23,1.14,10.74,3.42,2.42,2.24,3.63,5.57,3.63,10.04,0,5.02-1.47,8.56-4.4,10.61Z"/>
    <polygon class="cls-1" points="182.08 445.65 182.08 445.64 182.07 445.64 182.08 445.65"/>
    <polygon class="cls-1" points="258.36 426.84 278.5 426.84 278.5 419.5 258.36 419.5 258.36 409.87 292.88 409.87 292.88 402.52 248.2 402.52 248.2 445.65 248.2 445.65 293.3 445.65 293.3 437.55 258.36 437.55 258.36 426.84"/>
    <path class="cls-1" d="M346.2,429.34c3.48,0,6.02-.67,7.62-2,1.52-1.33,2.27-3.45,2.27-6.34v-10.12c0-2.97-.75-5.11-2.27-6.43-1.65-1.29-4.19-1.94-7.62-1.94h-37.29v43.13h9.97v-16.3h9.64l17.59,16.3h14.56l-20.13-16.3h5.66ZM318.88,422.01v-12.04h22.84c1.77,0,2.98.26,3.63.76.63.5.93,1.39.93,2.67v5.18c0,1.25-.31,2.14-.93,2.67-.64.51-1.86.75-3.63.75h-22.84Z"/>
    <polygon class="cls-1" points="372.77 402.52 372.77 445.65 383 445.65 382.91 402.52 372.77 402.52"/>
    <path class="cls-1" d="M435.84,402.52h-26.06c-4.2,0-7.08.73-8.64,2.19-1.46,1.47-2.19,4.14-2.19,8.02v22.72c0,3.89.73,6.57,2.19,8.04,1.57,1.44,4.45,2.16,8.64,2.16h26.06c4.2,0,7.07-.72,8.61-2.16,1.47-1.45,2.21-4.14,2.21-8.04v-5.1l-10.16-2.08v9.28h-27.39v-27.34h27.39v8.2l10.16-1.59v-4.1c0-3.89-.73-6.56-2.21-8.02-1.54-1.46-4.41-2.19-8.61-2.19Z"/>
    <polygon class="cls-1" points="511.57 402.52 496.85 402.52 472.67 420.49 472.67 402.52 462.43 402.52 462.43 445.65 472.67 445.65 472.67 426.67 498.79 445.65 515.12 445.65 482.65 422.84 511.57 402.52"/>
    <polygon class="cls-1" points="603.92 431.44 592.07 402.52 584.96 402.52 573.38 431.44 562.32 402.52 551.83 402.52 568.66 445.65 575.67 445.65 587.85 415.82 599.85 445.65 606.7 445.65 623.53 402.52 614.49 402.52 603.92 431.44"/>
    <path class="cls-1" d="M669.92,429.34c3.48,0,6.02-.67,7.62-2,1.52-1.33,2.27-3.45,2.27-6.34v-10.12c0-2.97-.75-5.11-2.27-6.43-1.65-1.29-4.19-1.94-7.62-1.94h-37.29v43.13h9.97v-16.3h9.64l17.59,16.3h14.56l-20.13-16.3h5.66ZM642.6,422.01v-12.04h22.84c1.77,0,2.98.26,3.63.76.63.5.93,1.39.93,2.67v5.18c0,1.25-.31,2.14-.93,2.67-.64.51-1.86.75-3.63.75h-22.84Z"/>
    <path class="cls-1" d="M714.58,402.52l-24.59,43.13h10.05l5.08-9.45h27.64l5.25,9.45h11.42l-25.02-43.13h-9.82ZM709.53,428.43l9.64-17.54,9.45,17.54h-19.09Z"/>
    <path class="cls-1" d="M796.12,402.52h-37.29v43.13h9.97v-16.79h27.32c3.47,0,6.01-.68,7.62-2.02,1.52-1.32,2.27-3.43,2.27-6.34v-9.61c0-2.97-.75-5.11-2.27-6.43-1.65-1.29-4.19-1.94-7.62-1.94ZM796.2,418c0,1.27-.31,2.16-.93,2.67-.64.51-1.86.75-3.63.75h-22.84v-11.45h22.84c1.77,0,2.98.26,3.63.76.63.5.93,1.39.93,2.67v4.59Z"/>
    <path class="cls-1" d="M851.11,419.33h-27.23v-9.28h28.58v4.95l8.96-2.1v-.92c0-3.5-.75-5.94-2.27-7.35-1.59-1.4-4.44-2.1-8.55-2.1h-24.77c-4.23,0-7.08.73-8.55,2.19-1.52,1.43-2.27,4.1-2.27,8.02v4.78c0,3.92.75,6.59,2.27,8.02,1.49,1.45,4.34,2.16,8.55,2.16h27.23v9.85h-30.87v-5.09l-8.96,1.83v1.16c0,3.92.75,6.61,2.27,8.03,1.49,1.45,4.36,2.16,8.63,2.16h26.98c4.24,0,7.15-.72,8.71-2.16,1.45-1.47,2.19-4.15,2.19-8.04v-5.94c0-3.87-.73-6.55-2.19-8.02-1.57-1.45-4.47-2.16-8.71-2.16Z"/>
    <path class="cls-1" d="M1024.07,402.53h-30.11c-4.2,0-7.08.73-8.64,2.19-1.46,1.47-2.19,4.14-2.19,8.02v22.72c0,3.89.73,6.57,2.19,8.04,1.57,1.45,4.45,2.16,8.64,2.16h30.11c4.19,0,7.06-.72,8.64-2.16,1.47-1.45,2.21-4.14,2.21-8.04v-14.87h-26.45v7.35h16.57v9.63h-31.73v-27.34h31.73v4.85l9.89-1.75v-1c0-3.72-.76-6.29-2.29-7.69-1.5-1.4-4.35-2.1-8.55-2.1Z"/>
    <path class="cls-1" d="M1084.79,429.34c3.48,0,6.02-.67,7.62-2,1.52-1.33,2.27-3.45,2.27-6.34v-10.12c0-2.97-.75-5.11-2.27-6.43-1.65-1.29-4.19-1.94-7.62-1.94h-37.29v43.13h9.97v-16.3h9.64l17.59,16.3h14.56l-20.13-16.3h5.66ZM1057.48,422.01v-12.04h22.83c1.77,0,2.98.26,3.63.76.61.5.93,1.39.93,2.67v5.18c0,1.25-.31,2.14-.93,2.67-.64.51-1.86.75-3.63.75h-22.83Z"/>
    <path class="cls-1" d="M1129.6,402.52l-24.59,43.13h10.05l5.08-9.45h27.64l5.25,9.45h11.42l-25.02-43.13h-9.82ZM1124.55,428.43l9.64-17.54,9.45,17.54h-19.09Z"/>
    <path class="cls-1" d="M1210.98,402.52h-37.29v43.13h9.97v-16.79h27.32c3.47,0,6.01-.68,7.62-2.02,1.52-1.32,2.27-3.43,2.27-6.34v-9.61c0-2.97-.75-5.11-2.27-6.43-1.65-1.29-4.19-1.94-7.62-1.94ZM1211.06,418c0,1.27-.31,2.16-.93,2.67-.64.51-1.86.75-3.63.75h-22.83v-11.45h22.83c1.77,0,2.98.26,3.63.76.61.5.93,1.39.93,2.67v4.59Z"/>
    <polygon class="cls-1" points="1271.75 419.25 1240.03 419.25 1240.03 402.52 1229.87 402.52 1229.87 445.65 1240.03 445.65 1240.03 427.1 1271.75 427.1 1271.75 445.65 1281.99 445.65 1281.99 402.52 1271.75 402.52 1271.75 419.25"/>
    <polygon class="cls-1" points="1296.1 402.52 1296.1 445.65 1306.34 445.65 1306.24 402.52 1296.1 402.52"/>
    <path class="cls-1" d="M1354.11,402.52h-26.06c-4.2,0-7.08.73-8.64,2.19-1.46,1.47-2.19,4.14-2.19,8.02v22.72c0,3.89.73,6.57,2.19,8.04,1.57,1.44,4.45,2.16,8.64,2.16h26.06c4.2,0,7.07-.72,8.61-2.16,1.47-1.45,2.21-4.14,2.21-8.04v-5.1l-10.16-2.08v9.28h-27.39v-27.34h27.39v8.2l10.16-1.59v-4.1c0-3.89-.73-6.56-2.21-8.02-1.54-1.46-4.41-2.19-8.61-2.19Z"/>
    <path class="cls-1" d="M1411.6,419.33h-27.23v-9.28h28.58v4.95l8.96-2.1v-.92c0-3.5-.75-5.94-2.27-7.35-1.59-1.4-4.44-2.1-8.55-2.1h-24.78c-4.23,0-7.08.73-8.55,2.19-1.52,1.43-2.27,4.1-2.27,8.02v4.78c0,3.92.75,6.59,2.27,8.02,1.49,1.45,4.34,2.16,8.55,2.16h27.23v9.85h-30.87v-5.09l-8.96,1.83v1.16c0,3.92.75,6.61,2.27,8.03,1.49,1.45,4.36,2.16,8.63,2.16h26.98c4.24,0,7.15-.72,8.71-2.16,1.45-1.47,2.19-4.15,2.19-8.04v-5.94c0-3.87-.73-6.55-2.19-8.02-1.57-1.45-4.47-2.16-8.71-2.16Z"/>
  </g>
</svg>