<?xml version="1.0" encoding="UTF-8"?>
<svg id="Layer_1" data-name="Layer 1" xmlns="http://www.w3.org/2000/svg" viewBox="0 0 1422.51 866.78">
  <defs>
    <style>
      .cls-2 {
        fill: #fff;
      }
    </style>
    <linearGradient id="barGradient" x1="0%" y1="0%" x2="100%" y2="0%">
      <stop offset="0%" stop-color="#22d3ee"/>
      <stop offset="50%" stop-color="#a855f7"/>
      <stop offset="100%" stop-color="#ec4899"/>
    </linearGradient>
  </defs>
  <g>
    <path class="cls-2" d="M1001.99,102.81h0c2.77,3.06,5.08,6.47,6.97,10.09l2.5-5.83c0-.16,0-.33,0-.49.01-1.61.02-3.21.01-4.82-3.8-.14-7.6-.43-11.38-.9.65.63,1.28,1.28,1.89,1.95Z"/>
    <path class="cls-2" d="M1057.27.19h-127.85l-76.71,178.99L776,.19l-101.95-.19-77.04,179.18L520.29.19,409.25.03v-.03H0v383.75l127.85-25.57v-120.74h257.27l25.57-102.28H127.85v-33.04l307.36.36,110.65,255.71,104.1-.78,74.89-203.79,76.71,204.56h102.28l101.73-237.37c-.04-.11-.08-.21-.11-.31-.09-.24-.39-.74-.52-1.12-.04-.05-.07-.16-.06-.3-.04-.1-.09-.19-.13-.29-.1-.22-.2-.44-.3-.66-.23-.5-.48-1.01-.73-1.51-1-1.97-2.12-3.87-3.39-5.68-.33-.48-.68-.95-1.03-1.42-.04-.05-.06-.08-.08-.11-.04-.04-.07-.08-.1-.11-.16-.2-.33-.41-.49-.6-.75-.9-1.53-1.77-2.34-2.6-.87-.89-1.78-1.74-2.72-2.55-.48-.41-.98-.82-1.47-1.21-.11-.08-.21-.16-.33-.24-.23-.17-.46-.34-.7-.51-2.22-1.59-4.58-2.96-7.02-4.16-1.61-.79-1.91-2.94-1.15-4.39.56-1.06,1.6-1.51,2.67-1.51.46,0,.93.08,1.37.24-.17-.07-.32-.13-.29-.13.01,0,.05.01.14.04.1.04.21.07.31.11.31.11.63.2.94.29.95.28,1.92.52,2.88.74,2.78.65,5.61,1.15,8.44,1.55.09.01.17.02.25.04.17.02.34.04.51.06.46.06.92.11,1.37.16.97.11,1.94.21,2.9.3,2.13.19,4.26.33,6.4.42.2,0,.4,0,.59.01-.06-2.66-.14-5.32-.28-7.98-.15-2.9-.36-5.79-.66-8.68-.08-.72-.16-1.44-.24-2.16-.03-.25-.07-.5-.1-.75.02.2.03.27.03.27,0,0-.07-.58-.1-.74-.18-1.23-.38-2.46-.62-3.68-.34-1.77.48-3.37,2.24-3.94.26-.08.53-.12.81-.12,1.39,0,2.86.99,3.13,2.36,1.24,6.32,1.72,12.79,2,19.22.09,2.09.15,4.18.2,6.26,2.68-.04,5.35-.14,8.02-.33,1.37-.1,2.73-.22,4.09-.36.75-.08,1.51-.16,2.26-.25.33-.04.65-.08.98-.12.16-.02.32-.04.48-.06.04,0,.09-.01.15-.02,2.95-.41,5.89-.93,8.82-1.53.27-.05.53-.08.79-.08,1.44,0,2.67.84,3.16,2.32.51,1.57-.59,3.6-2.24,3.94-6.7,1.39-13.5,2.3-20.33,2.7-2.03.12-4.06.19-6.09.21.03,8.27-.21,16.53-.57,24.78-.19,4.51-.43,9.01-.68,13.52-.07,1.29-.15,2.58-.21,3.87-.01.36-.04.71-.04,1.07,0,.2-.01.39-.03.59.06,1.42.12,2.83.16,4.26.05,1.6-1.25,2.94-2.78,3.15-.11.01-.23.01-.33.01v25.61c0,119.14.02,179.23.02,179.23l228.72.25,52.41-.25,127.85,25.81.07-248.73-250.03.14,21.84,87.37,99.33-.14v32.9h-159.84s0-25.53,0-76.59v-76.58h288.73s0-101.92,0-101.92h-365.24Z"/>
  </g>
  <g>
    <path class="cls-2" d="M412.74,787.61c0,31.15-5.95,52.14-17.85,62.95-11.9,10.82-33.64,16.22-65.22,16.22H83.07c-31.59,0-53.33-5.4-65.22-16.22C5.94,839.74,0,818.75,0,787.61v-176.52C0,579.94,5.94,558.96,17.85,548.14c11.89-10.81,33.63-16.22,65.22-16.22h246.6c31.58,0,53.32,5.41,65.22,16.22,11.89,10.82,17.85,31.8,17.85,62.95v176.52ZM334.86,803.83v-212.21H77.88v212.21h256.99Z"/>
    <path class="cls-2" d="M939.03,671.44c0,43.27-25.1,64.9-75.28,64.9h-210.26v130.44h-76.58v-334.86h286.84c50.18,0,75.28,21.64,75.28,64.9v74.63ZM863.76,651.97v-35.69c0-11.25-3.24-18.6-9.73-22.06-4.77-3.02-13.2-4.54-25.31-4.54h-175.22v88.91h175.22c12.11,0,20.54-1.51,25.31-4.54,6.49-3.46,9.73-10.81,9.73-22.06Z"/>
    <path class="cls-2" d="M1422.51,787.61c0,31.15-6.06,52.14-18.17,62.95-12.12,10.82-33.97,16.22-65.54,16.22h-207.02c-34.18,0-56.68-6.05-67.49-18.17-10.82-12.11-16.22-35.47-16.22-70.09l68.79-14.28v39.59h236.87v-76.58h-208.96c-31.59,0-53.33-5.4-65.22-16.22-11.9-10.81-17.85-31.8-17.85-62.95v-36.99c0-31.15,5.94-52.13,17.85-62.95,11.89-10.81,33.63-16.22,65.22-16.22h190.14c32.01,0,53.86,5.52,65.54,16.55,11.68,11.03,17.52,32.35,17.52,63.92l-68.79,16.22v-38.29h-219.35v72.03h208.96c31.58,0,53.43,5.41,65.54,16.22,12.11,10.82,18.17,31.8,18.17,62.95v46.08Z"/>
  </g>
  <rect fill="url(#barGradient)" x="174.02" y="447.75" width="1074.47" height="20.16"/>
</svg>