<?xml version="1.0" encoding="UTF-8"?>
<!DOCTYPE svg PUBLIC "-//W3C//DTD SVG 1.1//EN" "http://www.w3.org/Graphics/SVG/1.1/DTD/svg11.dtd">
<!-- Creator: CorelDRAW 2018 (64-Bit) -->
<svg xmlns="http://www.w3.org/2000/svg" xml:space="preserve" width="500mm" height="500mm" version="1.1" style="shape-rendering:geometricPrecision; text-rendering:geometricPrecision; image-rendering:optimizeQuality; fill-rule:evenodd; clip-rule:evenodd"
viewBox="0 0 50000 50000"
 xmlns:xlink="http://www.w3.org/1999/xlink">
 <defs>
  <style type="text/css">
   <![CDATA[
    .fil0 {fill:black;fill-rule:nonzero}
   ]]>
  </style>
 </defs>
 <g id="Слой_x0020_1">
  <metadata id="CorelCorpID_0Corel-Layer"/>
  <path class="fil0" d="M27910.7 44254.29c0,371.23 -564.46,371.23 -564.46,0 0,-905.42 -411.1,-2072.39 -905.18,-3474.88 -332.44,-943.68 -701.41,-1991.2 -1012.31,-3145.23 -536.6,-1453.34 -406.49,-1126.04 -857.98,1.49 -310.77,1153.47 -679.54,2200.48 -1011.83,3143.74 -494.08,1402.49 -905.18,2569.46 -905.18,3474.88 0,371.23 -564.46,371.23 -564.46,0 0,-998.94 426.12,-2208.57 938.26,-3662.3 124.93,-354.61 255.11,-724.24 385.33,-1108.66 -274.79,281.37 -562.09,511.72 -856.71,766.01 -279.52,241.87 -647.77,-183.68 -368.23,-425.56 811.74,-700.52 1495.24,-1286.24 1845.41,-2360.57 390.43,-1455.2 684.7,-3077.57 685.5,-4865.77 0.92,-2036.51 -333.63,-3840.85 -649.71,-5545.7 -223.51,-1205.43 -437.89,-2361.98 -521.95,-3524.49 -26.08,-237.41 -64.98,-447.62 -140.83,-612.07 -74.23,-160.93 -188.33,-279.55 -371.18,-338.08 -211.4,-67.83 -108.29,-389.32 103.18,-321.47 152.79,48.91 274.34,123.66 371.67,220.15 0.88,-197.59 6.47,-395.8 17.44,-594.92l602.14 -10926.35c34.53,-626.53 -31.04,-1267.33 -268.63,-1756.96 -180.02,-370.98 -464.34,-654.43 -888.31,-768.83 -256.26,-69.16 -540.95,-106.89 -794.2,-27.67 -285.7,89.36 -245.94,150.65 -292.94,415.53l-2201.19 12404.6c-40.51,228.32 -75.68,179.34 126.28,245.19 96.61,31.52 187.58,67.55 269.47,108.12 199.24,98.3 49.78,401.28 -149.49,302.96 -348.44,-172.64 -890.92,-248.99 -1277.29,-240.26 -221.9,4.34 -228.44,-333.02 -6.62,-337.34 86.59,-1.96 179.7,0.01 276.28,5.87 206.84,12.54 164.64,50.08 202.3,-162.18l2198.12 -12387.25c182.35,-1027.69 484.07,-2593.96 -435.72,-3308.4 -442.19,-343.48 -1136.57,-446.53 -1649.58,-204.75 146.05,566.93 115.75,1257.72 14.9,1929.17 -111.17,740.2 -310.86,1468 -445.78,1958.52l-3184.5 11576.94c-52.59,191.2 -63.08,141.68 134.63,180.92 146.24,29.04 274.37,63 373.48,99.88 207.95,77.43 90.21,393.63 -117.75,316.19 -405.01,-150.7 -1165.78,-196.14 -1587.6,-170.64 -221.88,13.04 -241.69,-324.3 -19.84,-337.34 142.06,-8.59 290.84,-10.19 439.91,-6 200.87,5.66 159.8,41.79 213.84,-154.65l3205.43 -11653.03c129.72,-471.62 321.73,-1171.47 430.33,-1894.58 103.79,-690.93 128.97,-1392.05 -62.17,-1891.52 -395.48,-1033.45 -2080.36,-1051.36 -2659.59,-76.57 -203.15,341.88 -375.18,754.45 -553.96,1300.24 -183.55,560.37 -371.36,1249.28 -602.91,2133.25 -59.6,235.37 -126.22,473.29 -196.9,711.09l-3309.58 11133.65c-58.28,196.11 -66.98,143.92 137.67,176.93 131.52,21.21 264.15,49.91 398.58,85.39 214.89,56.54 128.95,383.34 -86,326.78 -619.87,-163.6 -1188.76,-170.04 -1792.4,63.89 -207.08,80.06 -328.79,-234.8 -121.72,-314.85 222.03,-86.05 440.44,-143.27 658.38,-174.82 225.95,-32.69 163.68,19.75 226.77,-192.49l3348.09 -11263.23c268.78,-904.23 475.8,-1801.33 442.29,-2510.71 -65.26,-1381.69 -1347.99,-1742.62 -2291.5,-894.75 -564.64,507.44 -1138.26,1476.92 -1671.95,3150.58l-3566.57 11184.7c6.3,333.23 4.01,674.22 1.64,1027.7 -4.38,653.02 -9.04,1349.79 43.07,2138.32 74,1119.66 334.2,1767.71 615.81,2469.12 255.51,636.39 527.78,1314.52 707.73,2402.14 24.96,153.44 -79.18,298.06 -232.61,323.02 -153.43,24.96 -298.06,-79.18 -323.02,-232.61 -169.62,-1025.15 -430.16,-1674.09 -674.68,-2283.09 -242.93,-605.08 -470.86,-1172.78 -590.76,-2012.8 -134.25,239.22 -325.48,433.49 -580.91,598.29 -186.85,119.91 -369.39,-164.54 -182.57,-284.45 244.91,-158.01 415.75,-346.61 521.97,-586.13 67.15,-151.41 109.99,-324.65 130.75,-524.47 61.54,-592.13 -1.22,-1382.97 2.97,-2009.55 3.18,-476.17 6.23,-929.16 -12.89,-1377.75 -128.41,-3001.07 -3836.35,-2632.26 -3669.39,955.09 11.12,584.61 -138.13,1577.6 -266.18,2429.66 -87.78,584.02 -165.43,1100.6 -171.72,1335.66 -39.37,1469.3 405.69,3067.86 575.08,4556.95 452.54,3977.69 1537.47,5998.9 2616.11,7488.62 315.96,409.87 699.82,787.51 1154.13,1127.68 446,333.95 962.78,633.32 1552.96,893.3 339.33,149.36 112.22,665.33 -227.12,515.96 -316.8,-139.56 -615.03,-290.86 -895.03,-453.18 1075.16,1136.91 1597.57,1913.79 1203.18,5820.53 -63.81,365.44 -619.44,268.42 -555.63,-97.01 557.72,-4564.51 -499.8,-4675.2 -1924.43,-6480.75 -247.23,-313.34 -502.97,-637.5 -759.2,-990.07l-4.04 -5.54c-1121.6,-1544.52 -2252.04,-3636.01 -2720.98,-7757.81 -173.65,-1526.41 -617.84,-3117.4 -577.28,-4631.91 7.63,-285.26 86.73,-811.4 176.13,-1406.22 125.53,-835.25 271.82,-1808.64 261.77,-2337.04 -75.12,-3945.46 3744.63,-4776.7 4635.83,-1930.68l3200.09 -10035.47c568.18,-1781.79 1198.96,-2831.98 1830.71,-3399.73 1040.42,-934.98 2733.82,-777.24 3135.31,657.44 156.78,-439.79 315.73,-795.67 499.84,-1105.51 751.19,-1264.2 2764.9,-1348.09 3535.11,-111.97 698.04,-318 1610.03,-185.71 2210.42,280.67 728.94,566.21 868.48,1542.12 848.47,2314.86 -17.24,666.81 -171.74,490.21 359.44,476.67 227.6,-5.79 457.14,30.91 676.44,90.08 601.81,162.4 1001.07,555.9 1249.92,1068.7 283.3,583.82 362.91,1321.68 323.75,2032.58l-602.14 10926.34c-91.95,1668.71 210.86,3301.91 532.86,5038.59 130.83,705.65 264.77,1428.12 377.41,2178.34 355.81,-2369.76 1042.23,-4822.11 910.27,-7216.93l-602.14 -10926.34c-83.86,-1522.29 506.59,-3396.67 2400.29,-3181.16 297.59,33.84 245.14,124.77 227.04,-192.81 -109.46,-1916.49 1109.17,-3769.69 3041.11,-2889.59 770.21,-1236.12 2783.92,-1152.23 3535.11,111.97 184.11,309.84 343.06,665.72 499.84,1105.51 401.49,-1434.68 2094.89,-1592.42 3135.31,-657.44 631.75,567.75 1262.53,1617.94 1830.71,3399.73l3200.09 10035.47c757.54,-2419.18 3605.81,-2126.46 4401.35,241.35 320.8,954.74 323.61,2877.71 496.25,4026.37 232.62,1547.71 216.74,2264.08 -67.93,3840.92 -103.48,573.17 -225.07,1246.56 -333.22,2197.21 -468.94,4121.8 -1609.39,6273.31 -2730.98,7817.83l-4.04 5.53c-256.23,352.57 -511.97,676.73 -759.2,990.08 -1424.63,1805.55 -2421.75,2842.48 -1929.49,6374.55 63.81,365.43 -491.84,462.45 -555.63,97.02 -468.46,-3356.41 291.25,-4616.29 1218.24,-5774.36 -280,162.32 -578.23,313.62 -895.03,453.18 -339.34,149.37 -566.45,-366.6 -227.12,-515.96 590.18,-259.98 1106.96,-559.35 1552.96,-893.3 454.31,-340.17 838.17,-717.81 1154.13,-1127.68 1078.64,-1489.72 2163.57,-3510.93 2616.11,-7488.62 108.41,-952.98 233.42,-1645.38 339.82,-2234.71 274.74,-1521.79 287.44,-2168.39 63.54,-3657.9 -163.22,-1086.02 -173.94,-3032.05 -466.2,-3916.56 -749.45,-2268.03 -3360.9,-2012.46 -3469.37,531.81 -37.18,872.12 -1.13,1747.85 -17.04,2622.82 -7.86,432.12 -41.7,884 137.87,1288.95 106.22,239.52 277.06,428.12 521.97,586.13 186.82,119.91 4.28,404.36 -182.57,284.45 -255.43,-164.8 -446.66,-359.07 -580.91,-598.29 -215.25,1507.98 -1004.97,2721.64 -1265.44,4295.89 -59.45,365.42 -615.08,275.04 -555.63,-90.41 295.31,-1784.91 1204.88,-3075.97 1323.54,-4871.26 70.25,-1062.87 24.68,-2106.41 44.71,-3166.02l-3566.57 -11184.7c-533.69,-1673.66 -1107.31,-2643.14 -1671.95,-3150.58 -943.51,-847.87 -2226.24,-486.94 -2291.5,894.75 -33.51,709.38 173.51,1606.48 442.29,2510.71l3349.95 11269.49c56.92,191.46 1.53,156.11 195.57,182.15 227.67,30.56 455.73,88.99 687.72,178.9 207.07,80.05 85.36,394.91 -121.72,314.85 -603.64,-233.93 -1172.53,-227.49 -1792.4,-63.89 -214.95,56.56 -300.89,-270.24 -86,-326.78 142.34,-37.57 282.67,-67.53 421.79,-89.06 185,-28.64 170.52,15.36 116.46,-166.54l-3311.58 -11140.37c-70.68,-237.8 -137.3,-475.72 -196.9,-711.09 -231.55,-883.97 -419.36,-1572.88 -602.91,-2133.25 -178.78,-545.79 -350.81,-958.36 -553.96,-1300.24 -579.23,-974.79 -2264.11,-956.88 -2659.59,76.57 -191.14,499.47 -165.96,1200.59 -62.17,1891.52 108.6,723.11 300.61,1422.96 430.33,1894.58l3199.35 11630.95c62.72,228.03 17.47,181.18 253.03,175.9 137.95,-3.09 275.26,-1.13 406.8,6.83 221.85,13.04 202.04,350.38 -19.84,337.34 -421.79,-25.52 -1182.64,19.96 -1587.6,170.64 -207.96,77.44 -325.7,-238.76 -117.75,-316.19 97.55,-36.3 223.21,-69.78 366.58,-98.5 224.03,-44.87 192.4,2.67 127.76,-232.36l-3170.73 -11526.88c-134.92,-490.52 -334.61,-1218.32 -445.78,-1958.52 -100.85,-671.45 -131.15,-1362.24 14.9,-1929.17 -2127.03,-1002.44 -2372.52,1894.45 -2123.41,3298.35l2232.84 12582.95c42.03,236.9 -4.61,192.83 226.27,180.08 89.23,-4.92 175.29,-6.49 255.7,-4.67 221.82,4.32 215.28,341.68 -6.62,337.34 -386.37,-8.73 -928.85,67.62 -1277.29,240.26 -199.27,98.32 -348.73,-204.66 -149.49,-302.96 73,-36.17 153.22,-68.73 238.22,-97.7 252.33,-85.99 196.76,-34.52 143.72,-333.41l-2239.55 -12620.8c-125.45,-92.74 -266.76,-141.37 -415.6,-158.3 -1494.63,-170.05 -1839.47,1444.18 -1776.31,2590.23l602.14 10926.35c10.97,199.12 16.56,397.34 17.44,594.92 97.33,-96.49 218.88,-171.24 371.67,-220.15 211.47,-67.85 314.58,253.64 103.18,321.47 -182.85,58.53 -296.95,177.15 -371.18,338.08 -75.85,164.45 -114.75,374.66 -140.83,612.07 -222.4,3076.51 -1173.1,5880.34 -1171.66,9070.19 0.8,1788.2 295.08,3410.55 685.5,4865.77 350.17,1074.33 1033.67,1660.05 1845.41,2360.57 117.51,101.68 130.35,279.38 28.67,396.89 -101.69,117.51 -279.39,130.35 -396.9,28.67 -294.62,-254.29 -581.93,-484.64 -856.71,-766.01 130.22,384.43 260.42,754.05 385.33,1108.66 512.14,1453.73 938.26,2663.36 938.26,3662.3zm-15668.95 -33076.32c200.13,96.58 53.28,400.87 -146.85,304.29 -272.15,-130.94 -601.18,-177.57 -901,-170.05 -221.88,5.22 -229.79,-332.13 -7.95,-337.34 355.04,-8.9 733.81,48.18 1055.8,203.1zm4491.02 -827.78c196.64,103.54 39.2,402.53 -157.44,298.98 -256.66,-134.98 -600.11,-180.87 -886.78,-190.62 -221.86,-6.96 -211.27,-344.31 10.59,-337.34 344.49,11.73 725.38,66.87 1033.63,228.98zm3328.82 1137.23c210.57,70.48 103.41,390.64 -107.16,320.16 -278.18,-93.24 -629.44,-139.03 -922.59,-131.78 -221.87,5.22 -229.79,-332.13 -7.94,-337.34 334.91,-8.3 719.83,42.43 1037.69,148.96zm2996.55 2317.83c196.64,103.55 39.2,402.53 -157.44,298.99 -255.86,-134.79 -603.82,-173.24 -887.82,-133.53 -220.16,30.44 -266.4,-304.27 -46.3,-334.7 356.57,-49.85 770.81,0.28 1091.56,169.24zm-12359.06 2339.56c200.11,95.68 54.63,399.99 -145.52,304.29 -214.42,-102.57 -592.04,-174.57 -828.38,-141.13 -220.16,30.45 -266.4,-304.27 -46.3,-334.7 303.09,-42.91 745.04,39.91 1020.2,171.54zm4354.76 -66.79c207.95,77.43 90.21,393.63 -117.75,316.19 -286.79,-107.66 -541.18,-141.26 -846.64,-116.88 -221.88,17.4 -248.32,-319.95 -26.46,-337.34 356.27,-28.46 656.5,12.53 990.85,138.03zm3861.98 848.43c203.61,89.63 67.33,399.19 -136.26,309.57 -262.97,-116.39 -635.39,-148 -919.62,-124.89 -221.87,17.4 -248.31,-319.95 -26.46,-337.34 339.04,-27.59 769.16,14.05 1082.34,152.66zm3733.66 1284.51c185.96,120.78 2.08,403.91 -183.9,283.11 -232.72,-151.49 -602.57,-163.57 -870.58,-137.54 -221.02,20.87 -252.73,-315.17 -31.74,-336.03 352.37,-34.23 781.75,-7.75 1086.22,190.46zm-5798.49 15373.89c61.77,213.19 -262.36,307.08 -324.11,93.93 -761.13,-2635.86 -2771.27,-4572.63 -5465.22,-5155.61 -217.5,-46.97 -146.08,-377.7 71.44,-330.73 2815.32,609.24 4922.38,2637.47 5717.89,5392.41zm-746.8 -5307.14c181.61,127.72 -12.83,404.23 -194.47,276.5 -2137.18,-1503.54 -5103.32,-1345.05 -6497.52,-2728.19 -157.47,-156.61 80.66,-396.06 238.14,-239.44 1270.96,1260.88 4348.76,1210.17 6453.85,2691.13zm5136.63 -1738.73c220.16,-30.45 266.4,304.27 46.3,334.7 -2210.74,307.34 -7871.91,-378.32 -9501.07,-1999.13 -157.47,-156.61 80.66,-396.06 238.14,-239.44 1544.08,1536.16 7117.25,2195.72 9216.63,1903.87zm16664.28 -15056.72c-200.13,96.58 -346.98,-207.71 -146.85,-304.29 321.99,-154.92 700.76,-212 1055.8,-203.1 221.84,5.21 213.93,342.56 -7.95,337.34 -299.82,-7.52 -628.85,39.11 -901,170.05zm-4480.43 -833.09c-196.64,103.55 -354.08,-195.44 -157.44,-298.98 308.25,-162.11 689.14,-217.25 1033.63,-228.98 221.86,-6.97 232.45,330.38 10.59,337.34 -286.67,9.75 -630.12,55.64 -886.78,190.62zm-3379.1 1158.41c-210.57,70.48 -317.73,-249.68 -107.16,-320.16 317.86,-106.53 702.78,-157.26 1037.69,-148.96 221.85,5.21 213.93,342.56 -7.94,337.34 -293.15,-7.25 -644.41,38.54 -922.59,131.78zm-2946.27 2296.66c-196.64,103.54 -354.08,-195.44 -157.44,-298.99 320.75,-168.96 734.99,-219.09 1091.56,-169.24 220.1,30.43 173.86,365.14 -46.3,334.7 -284,-39.71 -631.96,-1.26 -887.82,133.53zm12347.14 2344.86c-200.15,95.7 -345.63,-208.61 -145.52,-304.29 275.16,-131.63 717.11,-214.45 1020.2,-171.54 220.1,30.43 173.86,365.15 -46.3,334.7 -236.34,-33.44 -613.96,38.56 -828.38,141.13zm-4382.53 -54.89c-207.96,77.44 -325.7,-238.76 -117.75,-316.19 334.35,-125.5 634.58,-166.49 990.85,-138.03 221.86,17.39 195.42,354.74 -26.46,337.34 -305.46,-24.38 -559.85,9.22 -846.64,116.88zm-3843.47 841.81c-203.59,89.62 -339.87,-219.94 -136.26,-309.57 313.18,-138.61 743.3,-180.25 1082.34,-152.66 221.85,17.39 195.41,354.74 -26.46,337.34 -284.23,-23.11 -656.65,8.5 -919.62,124.89zm-3686.02 1258.05c-185.98,120.8 -369.86,-162.33 -183.9,-283.11 304.47,-198.21 733.85,-224.69 1086.22,-190.46 220.99,20.86 189.28,356.9 -31.74,336.03 -268.01,-26.03 -637.86,-13.95 -870.58,137.54zm5938.7 15184.71c-61.75,213.15 -385.88,119.26 -324.11,-93.93 795.51,-2754.94 2902.57,-4783.17 5717.89,-5392.41 217.52,-46.97 288.94,283.76 71.44,330.73 -2693.95,582.98 -4704.09,2519.75 -5465.22,5155.61zm617.16 -5124.57c-181.64,127.73 -376.08,-148.78 -194.47,-276.5 2105.09,-1480.96 5182.89,-1430.25 6453.85,-2691.13 157.48,-156.62 395.61,82.83 238.14,239.44 -1394.2,1383.14 -4360.34,1224.65 -6497.52,2728.19zm-5377.4 -1680.53c-220.1,-30.43 -173.86,-365.15 46.3,-334.7 2099.38,291.85 7672.55,-367.71 9216.63,-1903.87 157.48,-156.62 395.61,82.83 238.14,239.44 -1629.16,1620.81 -7290.33,2306.47 -9501.07,1999.13z"/>
 </g>
</svg>
