<?xml version="1.0" encoding="UTF-8"?><svg id="b" xmlns="http://www.w3.org/2000/svg" viewBox="0 0 64 64"><defs><style>.e{fill:#be1e2d;}.f{fill:#fffffb;}</style></defs><g id="c"><circle class="f" cx="32" cy="32" r="32"/><g id="d"><path class="e" d="M16.47,26.47s-.05,0-.1-.05l.1.05Z"/><path class="e" d="M21.45,31.39s.1.15.1.15c0-.05-.1-.1-.1-.15Z"/><path class="e" d="M54.11,21.39c-.39-1.18-1.53-1.82-2.71-1.53-2.02.39-4.04.79-6.11,1.08-.44,0-.2,0-.1,0h-.34c-.25,0-.44,0-.69.1-.54.05-1.03.1-1.58.15-.94.1-1.87.2-2.86.25-1.82.15-3.69.2-5.52.25,0-1.48-.1-2.96-.15-4.43-.2-4.43-.54-8.92-1.38-13.3-.2-1.13-1.63-1.87-2.71-1.53-1.23.39-1.77,1.53-1.53,2.71h0c.15.84.3,1.67.44,2.56,0,.15.1.94,0,.2,0,.25.05.44.1.64.05.49.1.99.15,1.48.2,1.97.34,3.99.44,6.01.1,1.87.15,3.74.2,5.57h-.44c-1.48-.05-2.96-.15-4.43-.3-.69,0-1.33-.15-2.02-.2-.3,0-.64-.1-.94-.1h-.44s-.1,0-.05,0h0c-1.97-.3-3.89-.64-5.86-1.08-.69-.15-1.33-.34-1.97-.49-.15,0-.34-.1-.54-.15-.1,0-.15-.05-.25-.1h-.15c-.94-.25-2.07,0-2.61.94-.54.99-.3,2.46.79,3.05,1.67.84,3.35,1.77,4.88,2.86.15.1.34.25.49.34.05,0,.15.1.2.15-.1-.05-.15-.15.1.05.34.3.69.54,1.03.84.64.54,1.28,1.13,1.87,1.77.59.59,1.08,1.18,1.63,1.82.1.15.25.3.34.39,0,0,0,.05.1.1,0-.05,0-.1.05.05.25.3.49.64.69.99.89,1.23,1.67,2.56,2.36,3.94.15.34.34.69.49,1.03l.2.44c0,.1.1.2.1.25h0v.05c.05.1.05.15,0,.15.1.25.3.64.34.79.15.34.25.69.39,1.08.49,1.38.89,2.76,1.23,4.19.34,1.33.59,2.71.79,4.04,0,.34.1.64.15.94,0,.2,0,.39.05.59.1.64.15,1.28.2,1.92.1,1.23.2,2.46.25,3.69-.1,1.48-.3,3.05.2,4.43.39,1.03,1.28,1.72,2.41,1.58,1.03-.15,1.97-1.08,1.92-2.17,0-1.08-.05-2.12-.1-3.2v-.94c0-.89.1-1.77.15-2.66.15-3.1.34-6.26.49-9.36.25-5.66.44-11.38.39-17.04,1.43,0,2.81-.05,4.24-.15,4.73-.3,9.46-.89,14.09-1.87,1.13-.25,1.92-1.63,1.53-2.71v-.15h0ZM12.97,19.18h-.1s.1,0,.15.05c0,0-.05-.05-.05-.05ZM23.27,26.76c-.39-.44-.84-.89-1.28-1.33,2.61.34,5.22.54,7.83.59v3.25c0,2.61-.1,5.22-.15,7.83-1.53-3.79-3.65-7.34-6.4-10.39v.05Z"/></g></g></svg>